<svg width="148" height="32" viewBox="0 0 148 32" fill="none" xmlns="http://www.w3.org/2000/svg"><path fill-rule="evenodd" clip-rule="evenodd" d="M32 16C32 7.16344 24.8366 0 16 0C7.16344 0 0 7.16344 0 16C0 23.9861 5.85097 30.6053 13.5 31.8056V20.625H9.4375V16H13.5V12.475C13.5 8.465 15.8887 6.25 19.5434 6.25C21.294 6.25 23.125 6.5625 23.125 6.5625V10.5H21.1074C19.1198 10.5 18.5 11.7333 18.5 12.9987V16H22.9375L22.2281 20.625H18.5V31.8056C26.149 30.6053 32 23.9861 32 16Z" fill="#1877F2"></path><path fill-rule="evenodd" clip-rule="evenodd" d="M22.2281 20.625L22.9375 16H18.5V12.9987C18.5 11.7333 19.1198 10.5 21.1074 10.5H23.125V6.5625C23.125 6.5625 21.294 6.25 19.5434 6.25C15.8887 6.25 13.5 8.465 13.5 12.475V16H9.4375V20.625H13.5V31.8056C14.3146 31.9334 15.1495 32 16 32C16.8505 32 17.6854 31.9334 18.5 31.8056V20.625H22.2281Z" fill="white"></path><path d="M52.0829 9.13213C50.8666 9.13213 50.515 9.67158 50.515 10.8614V12.8352H53.7592L53.4341 16.024H50.5162V25.7013H46.6229V16.024H44V12.8352H46.6229V10.9156C46.6229 7.69906 47.9198 6.00005 51.5384 6.00005C52.2967 5.99827 53.0544 6.04331 53.8071 6.13491V9.13591L52.0829 9.13213Z" fill="#1877F2"></path><path d="M54.0288 18.8624C54.0288 15.2677 55.7316 12.5604 59.2998 12.5604C61.2458 12.5604 62.4344 13.5612 63.0028 14.8039V12.8352H66.7323V25.7013H63.0028V23.7552C62.4621 24.9992 61.2458 25.9723 59.2998 25.9723C55.7316 25.9723 54.0288 23.2687 54.0288 19.6703V18.8624ZM57.9209 19.7283C57.9209 21.6466 58.6229 22.9171 60.4341 22.9171C62.0298 22.9171 62.8402 21.755 62.8402 19.9173V18.6254C62.8402 16.7878 62.0298 15.6257 60.4341 15.6257C58.6229 15.6257 57.9209 16.8962 57.9209 18.8145V19.7283Z" fill="#1877F2"></path><path d="M74.8422 12.5642C76.3547 12.5642 77.7878 12.8894 78.5717 13.4288L77.7071 16.1866C76.8961 15.8004 76.0102 15.5973 75.112 15.5917C73.0033 15.5917 72.087 16.8079 72.087 18.8901V19.6464C72.087 21.7285 73.0058 22.9448 75.112 22.9448C76.0102 22.9392 76.8961 22.7361 77.7071 22.3499L78.5717 25.1064C77.7878 25.6471 76.356 25.9723 74.8422 25.9723C70.2733 25.9723 68.1924 23.512 68.1924 19.5657V18.9708C68.1924 15.0245 70.2733 12.5642 74.8422 12.5642Z" fill="#1877F2"></path><path d="M79.0845 19.7598V18.6254C79.0845 14.9766 81.1654 12.5755 85.4104 12.5755C89.4109 12.5755 91.1679 15.0081 91.1679 18.5763V20.6307H82.9753C83.0572 22.3877 83.8412 23.1717 86.0003 23.1717C87.4611 23.1717 89.0013 22.8742 90.1369 22.3877L90.849 25.0534C89.8218 25.5954 87.7131 26 85.849 26C80.9221 25.9987 79.0845 23.541 79.0845 19.7598ZM82.9766 18.0835H87.6804V17.7595C87.6804 16.3542 87.1132 15.2387 85.4117 15.2387C83.6534 15.24 82.9766 16.3492 82.9766 18.0784V18.0835Z" fill="#1877F2"></path><path d="M105.595 19.6741C105.595 23.2687 103.866 25.9761 100.302 25.9761C98.3557 25.9761 97.0046 25.003 96.4639 23.759V25.7051H92.7886V6.3744L96.6807 6.02148V14.6174C97.2479 13.483 98.4919 12.5629 100.303 12.5629C103.871 12.5629 105.597 15.2665 105.597 18.8649L105.595 19.6741ZM101.703 18.7817C101.703 16.9705 101.001 15.6194 99.1359 15.6194C97.5403 15.6194 96.6756 16.7537 96.6756 18.5927V19.9438C96.6756 21.7815 97.5403 22.9171 99.1359 22.9171C101.001 22.9171 101.703 21.5659 101.703 19.7547V18.7817Z" fill="#1877F2"></path><path d="M106.897 19.5922V18.9443C106.897 15.24 109.006 12.5642 113.304 12.5642C117.602 12.5642 119.712 15.24 119.712 18.9443V19.5922C119.712 23.2952 117.603 25.9723 113.305 25.9723C109.007 25.9723 106.897 23.2952 106.897 19.5922ZM115.819 18.6733C115.819 16.9705 115.115 15.6194 113.298 15.6194C111.48 15.6194 110.783 16.9705 110.783 18.6733V19.8631C110.783 21.5659 111.487 22.9171 113.298 22.9171C115.109 22.9171 115.819 21.5659 115.819 19.8631V18.6733Z" fill="#1877F2"></path><path d="M121.006 19.5922V18.9443C121.006 15.24 123.115 12.5642 127.413 12.5642C131.711 12.5642 133.82 15.24 133.82 18.9443V19.5922C133.82 23.2952 131.711 25.9723 127.413 25.9723C123.115 25.9723 121.006 23.2952 121.006 19.5922ZM129.927 18.6733C129.927 16.9705 129.224 15.6194 127.413 15.6194C125.602 15.6194 124.9 16.9705 124.9 18.6733V19.8631C124.9 21.5659 125.602 22.9171 127.413 22.9171C129.224 22.9171 129.927 21.5659 129.927 19.8631V18.6733Z" fill="#1877F2"></path><path d="M139.171 18.9708L143.009 12.8352H147.144L143.117 19.1876L147.307 25.7013H143.172L139.171 19.3993V25.7013H135.278V6.3744L139.171 6.02148V18.9708Z" fill="#1877F2"></path></svg>