<svg xmlns="http://www.w3.org/2000/svg" width="156" height="34" fill="none" viewBox="0 0 144 34" alt="Clipchamp" class="Logo-module__UI8T_a__LogoStyle"><g clip-path="url(#logo_svg__a)"><path fill="#7611F0" d="M2.358 10.414a2.79 2.79 0 0 0 3.2 2.234L28.78 8.712a2.94 2.94 0 0 0 2.409-3.451l-.268-1.437a3.06 3.06 0 0 0-3.507-2.448L4.451 5.268a2.94 2.94 0 0 0-2.408 3.45z"></path><path fill="url(#logo_svg__b)" fill-opacity="0.9" d="M2.358 10.414a2.79 2.79 0 0 0 3.2 2.234L28.78 8.712a2.94 2.94 0 0 0 2.409-3.451l-.268-1.437a3.06 3.06 0 0 0-3.507-2.448L4.451 5.268a2.94 2.94 0 0 0-2.408 3.45z"></path><path fill="url(#logo_svg__c)" fill-opacity="0.6" d="M2.358 10.414a2.79 2.79 0 0 0 3.2 2.234L28.78 8.712a2.94 2.94 0 0 0 2.409-3.451l-.268-1.437a3.06 3.06 0 0 0-3.507-2.448L4.451 5.268a2.94 2.94 0 0 0-2.408 3.45z"></path><path fill="url(#logo_svg__d)" fill-opacity="0.4" d="M2.358 10.414a2.79 2.79 0 0 0 3.2 2.234L28.78 8.712a2.94 2.94 0 0 0 2.409-3.451l-.268-1.437a3.06 3.06 0 0 0-3.507-2.448L4.451 5.268a2.94 2.94 0 0 0-2.408 3.45z"></path><path fill="#7611F0" d="M2.002 28.324a4 4 0 0 0 4 4h22.645a3.333 3.333 0 0 0 3.334-3.333v-2.085a3.333 3.333 0 0 0-3.334-3.333H6.937a4.935 4.935 0 0 1-4.935-4.935z"></path><path fill="#A966FF" fill-opacity="0.2" d="M2.002 28.324a4 4 0 0 0 4 4h22.645a3.333 3.333 0 0 0 3.334-3.333v-2.085a3.333 3.333 0 0 0-3.334-3.333H6.937a4.935 4.935 0 0 1-4.935-4.935z"></path><path fill="url(#logo_svg__e)" fill-opacity="0.4" d="M2.002 28.324a4 4 0 0 0 4 4h22.645a3.333 3.333 0 0 0 3.334-3.333v-2.085a3.333 3.333 0 0 0-3.334-3.333H6.937a4.935 4.935 0 0 1-4.935-4.935z"></path><path fill="url(#logo_svg__f)" fill-opacity="0.15" d="M2.002 28.324a4 4 0 0 0 4 4h22.645a3.333 3.333 0 0 0 3.334-3.333v-2.085a3.333 3.333 0 0 0-3.334-3.333H6.937a4.935 4.935 0 0 1-4.935-4.935z"></path><path fill="url(#logo_svg__g)" fill-opacity="0.3" d="M2.002 28.324a4 4 0 0 0 4 4h22.645a3.333 3.333 0 0 0 3.334-3.333v-2.085a3.333 3.333 0 0 0-3.334-3.333H6.937a4.935 4.935 0 0 1-4.935-4.935z"></path><path fill="url(#logo_svg__h)" fill-opacity="0.2" d="M2.002 28.324a4 4 0 0 0 4 4h22.645a3.333 3.333 0 0 0 3.334-3.333v-2.085a3.333 3.333 0 0 0-3.334-3.333H6.937a4.935 4.935 0 0 1-4.935-4.935z"></path><path fill="#BC7FFF" d="M2.002 17.94A3.06 3.06 0 0 0 5.064 21h23.25a3.667 3.667 0 0 1 3.666 3.667v1.414-11.409a3.333 3.333 0 0 0-3.333-3.333H5.335a3.333 3.333 0 0 1-3.333-3.334v-1.34z"></path><path fill="url(#logo_svg__i)" d="M2.002 17.94A3.06 3.06 0 0 0 5.064 21h23.25a3.667 3.667 0 0 1 3.666 3.667v1.414-11.409a3.333 3.333 0 0 0-3.333-3.333H5.335a3.333 3.333 0 0 1-3.333-3.334v-1.34z"></path><path fill="url(#logo_svg__j)" fill-opacity="0.8" d="M2.002 17.94A3.06 3.06 0 0 0 5.064 21h23.25a3.667 3.667 0 0 1 3.666 3.667v1.414-11.409a3.333 3.333 0 0 0-3.333-3.333H5.335a3.333 3.333 0 0 1-3.333-3.334v-1.34z"></path><path fill="url(#logo_svg__k)" d="M2.002 17.94A3.06 3.06 0 0 0 5.064 21h23.25a3.667 3.667 0 0 1 3.666 3.667v1.414-11.409a3.333 3.333 0 0 0-3.333-3.333H5.335a3.333 3.333 0 0 1-3.333-3.334v-1.34z"></path><path fill="#974CFF" d="M2.002 21.662a3.667 3.667 0 0 0 3.667 3.667h22.978a3.334 3.334 0 0 1 3.334 3.334v.42-7.43a3.33 3.33 0 0 0-3.334-3.333H5.67a3.667 3.667 0 0 1-3.667-3.666v-1.26z"></path><path fill="#A966FF" fill-opacity="0.35" d="M2.002 21.662a3.667 3.667 0 0 0 3.667 3.667h22.978a3.334 3.334 0 0 1 3.334 3.334v.42-7.43a3.33 3.33 0 0 0-3.334-3.333H5.67a3.667 3.667 0 0 1-3.667-3.666v-1.26z"></path><path fill="url(#logo_svg__l)" fill-opacity="0.4" d="M2.002 21.662a3.667 3.667 0 0 0 3.667 3.667h22.978a3.334 3.334 0 0 1 3.334 3.334v.42-7.43a3.33 3.33 0 0 0-3.334-3.333H5.67a3.667 3.667 0 0 1-3.667-3.666v-1.26z"></path><path fill="url(#logo_svg__m)" fill-opacity="0.4" d="M2.002 21.662a3.667 3.667 0 0 0 3.667 3.667h22.978a3.334 3.334 0 0 1 3.334 3.334v.42-7.43a3.33 3.33 0 0 0-3.334-3.333H5.67a3.667 3.667 0 0 1-3.667-3.666v-1.26z"></path><path fill="url(#logo_svg__n)" fill-opacity="0.6" d="M2.002 21.662a3.667 3.667 0 0 0 3.667 3.667h22.978a3.334 3.334 0 0 1 3.334 3.334v.42-7.43a3.33 3.33 0 0 0-3.334-3.333H5.67a3.667 3.667 0 0 1-3.667-3.666v-1.26z"></path></g><path fill="#280056" d="M134.771 23.787h-.04v5.94h-2.33v-14.95h2.33v1.59h.04q.6-.92 1.46-1.37.87-.46 1.971-.46 2.01 0 3.12 1.36 1.12 1.359 1.12 3.72 0 2.55-1.27 4.1-1.26 1.54-3.39 1.54-.981 0-1.731-.37a3.5 3.5 0 0 1-1.28-1.1m-.07-4.3v1.19q0 1.16.73 1.94.73.77 1.85.77 1.3 0 2.031-.99.74-1 .74-2.75 0-1.58-.68-2.41-.67-.83-1.87-.83-1.251 0-2.031.87-.77.86-.77 2.21M129.52 25.017h-2.32v-5.88q0-1.42-.48-2.07-.47-.66-1.52-.66-.93 0-1.56.82-.62.82-.62 2v5.79h-2.32v-6q0-1.31-.5-1.96t-1.51-.65q-.96 0-1.56.78t-.6 2.06v5.77h-2.33v-10.24h2.33v1.52h.04q.519-.84 1.35-1.3a3.8 3.8 0 0 1 1.87-.46q1.06 0 1.82.52.77.51 1.1 1.41.6-.97 1.46-1.45t1.99-.48q1.65 0 2.5 1.04.86 1.03.86 3.1zM111.278 25.017h-2.25v-1.43h-.04q-.53.83-1.31 1.25-.77.42-1.75.42-1.4 0-2.32-.82-.91-.82-.91-2.2t.91-2.24q.92-.87 2.68-1.1l2.75-.35v-.32q0-1.01-.54-1.48-.53-.47-1.43-.47-.78 0-1.46.31a4 4 0 0 0-1.26.93l-1.31-1.19a5.4 5.4 0 0 1 1.82-1.32q1.05-.47 2.39-.47 2.01 0 3.02 1.02 1.01 1.01 1.01 3zm-2.24-4.16v-.74l-2.31.28q-.92.12-1.37.5-.44.38-.44 1.08 0 .71.45 1.13.46.41 1.17.41 1.13 0 1.81-.75.69-.76.69-1.91M100.577 25.018h-2.32v-5.92q0-1.341-.51-2.01-.51-.68-1.52-.68-1.06 0-1.74.78t-.68 2.01v5.82h-2.33V9.856h2.33v6.44h.04q.56-.87 1.4-1.31.84-.45 1.86-.45 1.7 0 2.58 1.05.89 1.05.89 3.12zM89.315 23.857a4.7 4.7 0 0 1-1.61 1.06 5.3 5.3 0 0 1-1.94.34q-2.41 0-3.81-1.4t-1.4-3.75q0-2.56 1.47-4.06 1.47-1.51 3.9-1.51 1.06 0 1.92.34.87.34 1.53 1.04l-1.29 1.33a3.2 3.2 0 0 0-1.02-.64 3.2 3.2 0 0 0-1.16-.2q-1.38 0-2.18.95t-.8 2.57q0 1.66.83 2.56.84.89 2.16.89.52 0 1.06-.2.54-.21 1.05-.68zM71.124 23.787h-.04v5.94h-2.33v-14.95h2.33v1.59h.04q.6-.92 1.46-1.37.87-.46 1.97-.46 2.01 0 3.12 1.36 1.12 1.359 1.12 3.72 0 2.55-1.27 4.1-1.26 1.54-3.39 1.54-.98 0-1.73-.37a3.5 3.5 0 0 1-1.28-1.1m-.07-4.3v1.19q0 1.16.73 1.94.73.77 1.85.77 1.3 0 2.03-.99.74-1 .74-2.75 0-1.58-.68-2.41-.67-.83-1.87-.83-1.25 0-2.03.87-.77.86-.77 2.21M64.502 12.846q-.64 0-1.06-.42t-.42-1.02q0-.61.42-1.02t1.06-.41q.66 0 1.08.41t.42 1.02q0 .62-.42 1.03t-1.08.41m1.16 12.17h-2.33v-10.24h2.33zM57.91 25.018V9.856h2.331v15.16zM55.63 23.287a7.1 7.1 0 0 1-2.15 1.44q-1.221.53-2.79.53-3.25 0-5.15-1.92-1.89-1.93-1.89-5.24 0-3.421 2.01-5.54 2.019-2.121 5.25-2.121 1.5 0 2.63.5 1.13.49 2 1.42l-1.32 1.48a4.3 4.3 0 0 0-1.47-.97q-.79-.32-1.81-.32-2.09 0-3.44 1.47t-1.35 3.92q0 2.41 1.28 3.81 1.28 1.39 3.43 1.39.97 0 1.82-.35a5.1 5.1 0 0 0 1.58-1.03z"></path><defs><linearGradient id="logo_svg__e" x1="21.238" x2="20.352" y1="25.481" y2="30.664" gradientUnits="userSpaceOnUse"><stop stop-color="#330072"></stop><stop offset="1" stop-color="#7611F0" stop-opacity="0"></stop></linearGradient><linearGradient id="logo_svg__f" x1="8.73" x2="8.73" y1="25.491" y2="33.157" gradientUnits="userSpaceOnUse"><stop stop-color="#9136F2" stop-opacity="0"></stop><stop offset="0.836" stop-color="#B76AFF"></stop></linearGradient><linearGradient id="logo_svg__g" x1="10.178" x2="2.001" y1="24.991" y2="25.064" gradientUnits="userSpaceOnUse"><stop stop-color="#9136F2" stop-opacity="0"></stop><stop offset="0.836" stop-color="#B76AFF"></stop></linearGradient><linearGradient id="logo_svg__h" x1="22.954" x2="35.344" y1="25.061" y2="35.172" gradientUnits="userSpaceOnUse"><stop stop-color="#9136F2" stop-opacity="0"></stop><stop offset="0.836" stop-color="#B76AFF"></stop></linearGradient><linearGradient id="logo_svg__i" x1="10.178" x2="2.001" y1="14.369" y2="14.369" gradientUnits="userSpaceOnUse"><stop stop-color="#BC80FF" stop-opacity="0"></stop><stop offset="0.836" stop-color="#ECB4FF"></stop></linearGradient><linearGradient id="logo_svg__j" x1="22.049" x2="31.98" y1="14.369" y2="14.369" gradientUnits="userSpaceOnUse"><stop stop-color="#BC7FFF" stop-opacity="0"></stop><stop offset="0.836" stop-color="#ECB4FF"></stop></linearGradient><linearGradient id="logo_svg__l" x1="19.826" x2="19.434" y1="13.723" y2="23.076" gradientUnits="userSpaceOnUse"><stop stop-color="#6200D5"></stop><stop offset="1" stop-color="#3E008D" stop-opacity="0"></stop></linearGradient><linearGradient id="logo_svg__m" x1="23.806" x2="31.983" y1="21.232" y2="21.232" gradientUnits="userSpaceOnUse"><stop stop-color="#9B54FD" stop-opacity="0"></stop><stop offset="0.836" stop-color="#ECB4FF"></stop></linearGradient><linearGradient id="logo_svg__n" x1="10.178" x2="2.001" y1="21.232" y2="21.232" gradientUnits="userSpaceOnUse"><stop stop-color="#944EF6" stop-opacity="0"></stop><stop offset="0.836" stop-color="#ECB4FF"></stop></linearGradient><radialGradient id="logo_svg__b" cx="0" cy="0" r="1" gradientTransform="matrix(-24.2542 12.5565 15.6939 28.4958 17.238 -12.312)" gradientUnits="userSpaceOnUse"><stop offset="0.625" stop-color="#974CFF"></stop><stop offset="1" stop-color="#5000B0"></stop></radialGradient><radialGradient id="logo_svg__c" cx="0" cy="0" r="1" gradientTransform="matrix(-22.0831 9.59203 23.1944 49.3026 32.092 -.916)" gradientUnits="userSpaceOnUse"><stop offset="0.147" stop-color="#DE91FF"></stop><stop offset="0.678" stop-color="#D373FC" stop-opacity="0"></stop></radialGradient><radialGradient id="logo_svg__d" cx="0" cy="0" r="1" gradientTransform="matrix(-9.21759 12.3186 36.5423 16.3078 19.688 -5.608)" gradientUnits="userSpaceOnUse"><stop stop-color="#FFC7A3"></stop><stop offset="0.831" stop-color="#DE67FD" stop-opacity="0"></stop></radialGradient><radialGradient id="logo_svg__k" cx="0" cy="0" r="1" gradientTransform="matrix(-9.78287 15.364 19.7514 36.288 26.774 -5.252)" gradientUnits="userSpaceOnUse"><stop stop-color="#FFC7A3"></stop><stop offset="0.831" stop-color="#DE67FD" stop-opacity="0"></stop></radialGradient><clipPath id="logo_svg__a"><path fill="#fff" d="M1 1.327h32v32H1z"></path></clipPath></defs></svg>