<svg width="142" height="24" viewBox="0 0 142 24" fill="none" xmlns="http://www.w3.org/2000/svg"><path d="m21.286 9.606-5.9-.854-2.636-5.326a.866.866 0 0 0-1.495 0l-2.64 5.326-5.9.854a.834.834 0 0 0-.69 1.021c.036.15.115.288.226.396l4.27 4.148-1.007 5.858a.828.828 0 0 0 .761.97c.155.01.31-.022.448-.094L12 19.14l5.277 2.765a.835.835 0 0 0 1.21-.876l-1.009-5.858 4.27-4.148a.83.83 0 0 0-.46-1.417h-.002Zm30 0-5.9-.854-2.636-5.326a.866.866 0 0 0-1.495 0l-2.64 5.326-5.9.854a.835.835 0 0 0-.69 1.021c.036.15.115.288.226.396l4.27 4.148-1.007 5.858a.828.828 0 0 0 .761.97c.155.01.31-.022.448-.094L42 19.14l5.277 2.765a.835.835 0 0 0 1.21-.876l-1.009-5.858 4.27-4.148a.83.83 0 0 0-.46-1.417h-.002Zm30 0-5.9-.854-2.636-5.326a.866.866 0 0 0-1.495 0l-2.64 5.326-5.9.854a.835.835 0 0 0-.69 1.021c.036.15.115.288.226.396l4.27 4.148-1.007 5.858a.828.828 0 0 0 .761.97c.155.01.31-.022.448-.094L72 19.14l5.277 2.765a.835.835 0 0 0 1.21-.876l-1.009-5.858 4.27-4.148a.83.83 0 0 0-.46-1.417h-.002Zm30 0-5.901-.854-2.635-5.326a.868.868 0 0 0-1.495 0l-2.64 5.326-5.9.854a.835.835 0 0 0-.69 1.021c.036.15.115.288.226.396l4.27 4.148-1.007 5.858a.828.828 0 0 0 .761.97c.155.01.31-.022.448-.094L102 19.14l5.277 2.765a.836.836 0 0 0 1.209-.876l-1.008-5.858 4.271-4.148a.832.832 0 0 0 .211-.852.83.83 0 0 0-.674-.565ZM141.286 9.606l-5.901-.854-2.635-5.326a.868.868 0 0 0-1.495 0l-2.64 5.326-5.9.854a.833.833 0 0 0-.464 1.417l4.27 4.148-1.007 5.858a.818.818 0 0 0 .165.654.825.825 0 0 0 .596.315c.155.012.31-.02.448-.093L132 19.14l5.277 2.765a.836.836 0 0 0 1.209-.876l-1.008-5.858 4.271-4.148a.832.832 0 0 0 .211-.852.83.83 0 0 0-.674-.565Z" fill="#CA5E3B"></path></svg>