<svg width="137" height="32" viewBox="0 0 137 32" fill="none" xmlns="http://www.w3.org/2000/svg"><g clip-path="url(#_S_1_)"><path fill-rule="evenodd" clip-rule="evenodd" d="M32 16C32 24.8365 24.8365 32 16 32C7.16347 32 0 24.8365 0 16C0 7.16347 7.16347 0 16 0C24.8365 0 32 7.16347 32 16Z" fill="#DA552F"></path><path fill-rule="evenodd" clip-rule="evenodd" d="M18.1332 15.9999V16.0001H13.5999V11.2001H18.1332V11.1999C19.4587 11.1999 20.5332 12.2745 20.5332 13.5999C20.5332 14.9254 19.4587 15.9999 18.1332 15.9999ZM18.1332 7.99994V8.00007L10.3999 7.99994V23.9999H13.5999V19.2001H18.1332V19.1999C21.226 19.1999 23.7332 16.6927 23.7332 13.5999C23.7332 10.5071 21.226 7.99994 18.1332 7.99994Z" fill="white"></path><path fill-rule="evenodd" clip-rule="evenodd" d="M48.8089 14.0442C48.8089 13.1642 48.1322 12.6301 47.2534 12.6301H44.8973V15.4423H47.2534C48.1322 15.4423 48.8089 14.9082 48.8089 14.0442ZM42.6665 21.3333V10.6666H47.5669C49.845 10.6666 51.0857 12.2061 51.0857 14.0442C51.0857 15.8663 49.8297 17.4058 47.5669 17.4058H44.8973V21.3333H42.6665Z" fill="#DA552F"></path><path fill-rule="evenodd" clip-rule="evenodd" d="M52.4429 21.3333V13.5568H54.437V14.5783C54.987 13.9183 55.9145 13.3688 56.8571 13.3688V15.3163C56.7151 15.2849 56.5425 15.2696 56.3071 15.2696C55.6471 15.2696 54.767 15.6463 54.437 16.1337V21.3333H52.4429Z" fill="#DA552F"></path><path fill-rule="evenodd" clip-rule="evenodd" d="M63.5677 17.3431C63.5677 16.165 62.8757 15.1436 61.6195 15.1436C60.3775 15.1436 59.6867 16.165 59.6867 17.3431C59.6867 18.5372 60.3775 19.5579 61.6195 19.5579C62.8757 19.5579 63.5677 18.5372 63.5677 17.3431ZM57.6133 17.3431C57.6133 15.191 59.1214 13.3688 61.6195 13.3688C64.133 13.3688 65.6411 15.191 65.6411 17.3431C65.6411 19.4952 64.133 21.3334 61.6195 21.3334C59.1214 21.3334 57.6133 19.4952 57.6133 17.3431Z" fill="#DA552F"></path><path fill-rule="evenodd" clip-rule="evenodd" d="M72.3542 18.6939V16.0077C72.0242 15.5049 71.3016 15.1436 70.6414 15.1436C69.4954 15.1436 68.71 16.0391 68.71 17.3431C68.71 18.6625 69.4954 19.5579 70.6414 19.5579C71.3016 19.5579 72.0242 19.1965 72.3542 18.6939ZM72.3542 21.3333V20.1707C71.7569 20.9247 70.9408 21.3333 70.0134 21.3333C68.1127 21.3333 66.6519 19.888 66.6519 17.3431C66.6519 14.8769 68.082 13.3688 70.0134 13.3688C70.9088 13.3688 71.7569 13.7456 72.3542 14.5309V10.6667H74.365V21.3333H72.3542Z" fill="#DA552F"></path><path fill-rule="evenodd" clip-rule="evenodd" d="M81.4705 21.3333V20.1865C80.9525 20.752 80.0417 21.3333 78.8009 21.3333C77.1356 21.3333 76.3501 20.422 76.3501 18.9452V13.5568H78.3444V18.1599C78.3444 19.2125 78.8944 19.5579 79.7424 19.5579C80.5124 19.5579 81.1252 19.1339 81.4705 18.6939V13.5568H83.466V21.3333H81.4705Z" fill="#DA552F"></path><path fill-rule="evenodd" clip-rule="evenodd" d="M84.9639 17.3431C84.9639 15.0183 86.66 13.3688 88.9855 13.3688C90.5409 13.3688 91.4836 14.0442 91.9863 14.7356L90.6816 15.9603C90.3208 15.4263 89.7708 15.1436 89.0801 15.1436C87.87 15.1436 87.022 16.0236 87.022 17.3431C87.022 18.6626 87.87 19.5579 89.0801 19.5579C89.7708 19.5579 90.3208 19.2439 90.6816 18.7252L91.9863 19.9506C91.4836 20.642 90.5409 21.3334 88.9855 21.3334C86.66 21.3334 84.9639 19.6839 84.9639 17.3431Z" fill="#DA552F"></path><path fill-rule="evenodd" clip-rule="evenodd" d="M93.7015 19.2439V15.3009H92.4453V13.5568H93.7015V11.4833H95.6969V13.5568H97.2357V15.3009H95.6969V18.7099C95.6969 19.1965 95.9476 19.5579 96.3876 19.5579C96.6857 19.5579 96.9696 19.4479 97.0784 19.3225L97.5031 20.846C97.2051 21.1133 96.6703 21.3333 95.8376 21.3333C94.4395 21.3333 93.7015 20.6107 93.7015 19.2439Z" fill="#DA552F"></path><path fill-rule="evenodd" clip-rule="evenodd" d="M110.015 21.3333V16.7304H105.066V21.3333H102.836V10.6667H105.066V14.7823H110.015V10.6667H112.261V21.3333H110.015Z" fill="#DA552F"></path><path fill-rule="evenodd" clip-rule="evenodd" d="M119.4 21.3333V20.1865C118.882 20.752 117.971 21.3333 116.73 21.3333C115.065 21.3333 114.279 20.422 114.279 18.9452V13.5568H116.273V18.1599C116.273 19.2125 116.824 19.5579 117.672 19.5579C118.442 19.5579 119.054 19.1339 119.4 18.6939V13.5568H121.395V21.3333H119.4Z" fill="#DA552F"></path><path fill-rule="evenodd" clip-rule="evenodd" d="M128.499 21.3333V16.5577C128.499 15.5049 127.951 15.1436 127.101 15.1436C126.316 15.1436 125.72 15.5836 125.373 16.0236V21.3333H123.379V13.5568H125.373V14.5309C125.861 13.9656 126.803 13.3688 128.029 13.3688C129.709 13.3688 130.51 14.3109 130.51 15.7876V21.3333H128.499Z" fill="#DA552F"></path><path fill-rule="evenodd" clip-rule="evenodd" d="M132.888 19.2439V15.3009H131.632V13.5568H132.888V11.4833H134.883V13.5568H136.422V15.3009H134.883V18.7099C134.883 19.1965 135.134 19.5579 135.574 19.5579C135.872 19.5579 136.156 19.4479 136.266 19.3225L136.69 20.846C136.391 21.1133 135.857 21.3333 135.024 21.3333C133.626 21.3333 132.888 20.6107 132.888 19.2439Z" fill="#DA552F"></path></g><defs><clipPath id="_S_1_"><rect width="136.8" height="32" fill="white"></rect></clipPath></defs></svg>